<svg height="16" viewBox="0 0 16 16" width="16" xmlns="http://www.w3.org/2000/svg"><g fill="#9aa7b0" fill-rule="evenodd"><path d="m8.416 13.8965c0-.157.021-.578.021-.757 0-.82-.31-1.156-1.168-1.156h-.269v-.968h.269c.858 0 1.168-.347 1.168-1.167 0-.179-.021-.598-.021-.757 0-1.072.466-1.745 2.349-2.091l.216.84c-1.241.348-1.406.673-1.406 1.441 0 .211.021.557.021.778 0 .82-.393 1.219-1.076 1.441.693.23 1.076.62 1.076 1.44 0 .221-.021.567-.021.778 0 .767.165 1.093 1.406 1.44l-.216.842c-1.883-.348-2.349-1.021-2.349-2.104m3.6026 1.2617c1.241-.347 1.406-.673 1.406-1.439 0-.211-.02-.558-.02-.779 0-.82.392-1.22 1.075-1.44-.692-.232-1.075-.62-1.075-1.441 0-.22.02-.567.02-.778 0-.768-.165-1.093-1.406-1.44l.217-.841c1.883.346 2.348 1.019 2.348 2.092 0 .158-.021.578-.021.756 0 .821.31 1.167 1.169 1.167h.268v.968h-.268c-.859 0-1.169.336-1.169 1.156 0 .179.021.6.021.757 0 1.083-.465 1.756-2.348 2.104z"/><g fill-opacity=".8"><path d="m7 1-4 4h4z"/><path d="m10.5957 12.9404c0 .122-.011 1.01-.005 1.035 0-.001.002-.002.002-.002.03 0 .907.292.907.292s.872-.289.925-.325c-.007-.013-.02-.878-.02-1 0-.449.089-.975.404-1.437-.269-.39-.404-.873-.404-1.444 0-.122.01-1.01.004-1.035 0 .001-.001.001-.001.001-.031 0-.908-.291-.908-.291s-.872.289-.925.324c.007.014.021.879.021 1.001 0 .449-.09.974-.404 1.437.268.389.404.872.404 1.444"/><path d="m7.416 13.8965c0-.084.019-.868.016-.906-.04-.004-1.432-.007-1.432-.007v-2.968s1.391-.003 1.431-.008c.004-.039-.015-.831-.015-.916 0-2.209 1.692-2.803 3.168-3.075l.916-.169.916.169c.192.035.389.077.584.126v-5.142h-5v5h-5v9h4.609c-.113-.319-.193-.672-.193-1.104"/></g></g></svg>